Coordinates
version=1
nRows=14
nColumns=46
inDegrees=yes

Units are S.I. units (second, meters, Newtons, ...)
Angles are in degrees.

endheader
time	pelvis_tilt	pelvis_list	pelvis_rotation	pelvis_tx	pelvis_ty	pelvis_tz	bb_angle	bb_tx	bb_ty	bb_tz	hip_flexion_r	hip_adduction_r	hip_rotation_r	knee_angle_r	knee_angle_r_beta	ankle_angle_r	subtalar_angle_r	mtp_angle_r	crank_angle_r	hip_flexion_l	hip_adduction_l	hip_rotation_l	knee_angle_l	knee_angle_l_beta	ankle_angle_l	subtalar_angle_l	mtp_angle_l	crank_angle_l	lumbar_extension	lumbar_bending	lumbar_rotation	arm_flex_r	arm_add_r	arm_rot_r	elbow_flex_r	pro_sup_r	wrist_flex_r	wrist_dev_r	arm_flex_l	arm_add_l	arm_rot_l	elbow_flex_l	pro_sup_l	wrist_flex_l	wrist_dev_l
      2.50500000	    -13.04147330	      4.89380888	      0.55220975	      0.11476376	      1.15515833	     -0.20175901	      0.00000000	      0.50000000	      0.00000000	      0.25000000	     58.69779400	    -10.99539579	     -1.47445494	     77.06272156	      1.34499822	    -13.99991796	    -11.34658551	      0.00000000	      0.00000000	     78.12898333	     -6.85038641	     -3.92137989	     82.74516147	      1.44417551	     22.14321834	     -0.77739283	      0.00000000	      0.00000000	    -56.81282024	     -6.00399656	      0.56025174	     89.59963025	    -11.10157548	     29.25928162	     31.65170639	     26.07923586	      0.00000000	      0.00000000	     89.78652271	      4.29756742	     24.44986531	     32.29148907	     22.53683547	      0.00000000	      0.00000000
      2.51000000	    -13.19437431	      4.79457658	      0.40467843	      0.11531666	      1.15536990	     -0.20234411	      0.00000000	      0.50000000	      0.00000000	      0.25000000	     59.24227975	    -10.95755510	     -1.37187651	     78.00797935	      1.36149608	    -13.53534487	    -11.00094334	      0.00000000	      0.00000000	     77.68073257	     -6.76447481	     -3.82933382	     81.62250212	      1.42458141	     21.68577915	     -0.88048566	      0.00000000	      0.00000000	    -56.71812810	     -5.98552629	      0.72081217	     89.59127779	    -11.01468700	     28.70167942	     31.38603582	     27.58444805	      0.00000000	      0.00000000	     89.78221099	      4.40823541	     23.83126223	     31.82563264	     25.15439577	      0.00000000	      0.00000000
      2.51500000	    -13.25089928	      4.61747933	      0.18515877	      0.11589738	      1.15568562	     -0.20278691	      0.00000000	      0.50000000	      0.00000000	      0.25000000	     59.66518604	    -10.79143298	     -1.28633173	     78.93013309	      1.37759070	    -13.14332547	    -10.76071032	      0.00000000	      0.00000000	     77.14429984	     -6.84158791	     -3.72042736	     80.53118349	      1.40553430	     21.22640012	     -0.92220894	      0.00000000	      0.00000000	    -56.68020067	     -5.97335054	      1.06840482	     89.59808891	    -11.30155154	     29.24238023	     31.55901601	     27.31357101	      0.00000000	      0.00000000	     89.78166031	      4.43722772	     24.13783174	     31.83753521	     24.49197731	      0.00000000	      0.00000000
      2.52000000	    -13.28276408	      4.45557921	      0.00895143	      0.11643407	      1.15602443	     -0.20327117	      0.00000000	      0.50000000	      0.00000000	      0.25000000	     60.08541877	    -10.70110029	     -1.24576579	     79.85051868	      1.39365446	    -12.76950467	    -10.49482539	      0.00000000	      0.00000000	     76.55744793	     -6.87121089	     -3.59777296	     79.41611569	      1.38607270	     20.76856702	     -0.50368564	      0.00000000	      0.00000000	    -56.69980000	     -5.96820603	      1.34718018	     89.60362310	    -12.24745764	     31.67500670	     32.06905459	     26.91573943	      0.00000000	      0.00000000	     89.77937274	      4.13330910	     25.52995229	     32.15762546	     23.05332947	      0.00000000	      0.00000000
      2.52500000	    -13.29714603	      4.23907485	     -0.07342048	      0.11697789	      1.15638477	     -0.20388180	      0.00000000	      0.50000000	      0.00000000	      0.25000000	     60.46010267	    -10.64375077	     -1.30517756	     80.77734314	      1.40983060	    -12.44288187	    -10.43205262	      0.00000000	      0.00000000	     75.94672479	     -6.80974182	     -3.37616845	     78.28543352	      1.36633857	     20.33361201	     -0.49874764	      0.00000000	      0.00000000	    -56.77948160	     -5.82580174	      1.62045070	     89.59311515	    -12.24467933	     30.82622213	     32.42726237	     27.03620872	      0.00000000	      0.00000000	     89.77747575	      4.28530248	     25.01387255	     32.28524520	     23.24124820	      0.00000000	      0.00000000
      2.53000000	    -13.38714995	      4.08127818	     -0.23405588	      0.11748240	      1.15641957	     -0.20448746	      0.00000000	      0.50000000	      0.00000000	      0.25000000	     61.00753993	    -10.56975862	     -1.20593316	     81.78842017	      1.42747722	    -11.92608583	     -9.83981744	      0.00000000	      0.00000000	     75.41850685	     -6.76557961	     -3.14531346	     77.20329112	      1.34745162	     19.79525413	     -0.59375916	      0.00000000	      0.00000000	    -56.67811059	     -5.80548014	      1.87231926	     89.59608720	    -12.18906521	     30.62318130	     32.21487866	     26.92458344	      0.00000000	      0.00000000	     89.77442306	      4.49204318	     24.84281967	     32.04436654	     23.08237365	      0.00000000	      0.00000000
      2.53500000	    -13.42197520	      3.84544732	     -0.40962635	      0.11803085	      1.15656297	     -0.20513551	      0.00000000	      0.50000000	      0.00000000	      0.25000000	     61.46539874	    -10.46034586	     -1.22027893	     82.74179326	      1.44411672	    -11.53380297	     -9.50416613	      0.00000000	      0.00000000	     74.81847772	     -6.81469892	     -2.94993728	     76.10478751	      1.32827912	     19.31892578	     -0.46193144	      0.00000000	      0.00000000	    -56.66076354	     -5.71086243	      2.25476214	     89.58706288	    -12.13908884	     29.62155204	     32.16008912	     27.77236177	      0.00000000	      0.00000000	     89.77390620	      4.83324426	     24.14652562	     31.74802604	     24.00225436	      0.00000000	      0.00000000
      2.54000000	    -13.34592393	      3.64138525	     -0.55668397	      0.11857657	      1.15682300	     -0.20569983	      0.00000000	      0.50000000	      0.00000000	      0.25000000	     61.82883752	    -10.38682643	     -1.24701051	     83.71112225	      1.46103470	    -11.41669025	     -9.64853687	      0.00000000	      0.00000000	     74.07059382	     -6.78448335	     -2.72055543	     74.97657834	      1.30858815	     18.94113058	     -0.41558504	      0.00000000	      0.00000000	    -56.82669210	     -5.69945021	      2.82027179	     89.54936514	    -12.53556200	     28.12521856	     32.94853042	     28.53426025	      0.00000000	      0.00000000	     89.77589511	      5.57313844	     23.21485539	     31.28720805	     25.86681744	      0.00000000	      0.00000000
      2.54500000	    -13.47826793	      3.44149932	     -0.66305329	      0.11908551	      1.15659346	     -0.20655209	      0.00000000	      0.50000000	      0.00000000	      0.25000000	     62.46673832	    -10.38543695	     -1.22676392	     84.76778322	      1.47947692	    -10.78267278	     -8.88582361	      0.00000000	      0.00000000	     73.55376940	     -6.69309526	     -2.45578428	     73.85294807	      1.28897711	     18.45644215	     -0.48304594	      0.00000000	      0.00000000	    -56.60983696	     -5.59097461	      2.80193990	     89.58418775	    -12.20866322	     29.05046918	     32.09364262	     28.14072005	      0.00000000	      0.00000000	     89.76934690	      5.19828258	     23.65329590	     31.30667268	     25.39289305	      0.00000000	      0.00000000
      2.55000000	    -13.50528643	      3.38089945	     -0.74607562	      0.11959147	      1.15651509	     -0.20723802	      0.00000000	      0.50000000	      0.00000000	      0.25000000	     63.08488872	    -10.49149144	     -1.11686960	     85.85921576	      1.49852601	    -10.43570597	     -8.39207705	      0.00000000	      0.00000000	     72.85046147	     -6.54411964	     -2.39119016	     72.67665775	      1.26844697	     17.94248651	     -0.73827068	      0.00000000	      0.00000000	    -56.55786442	     -5.51689824	      2.65393206	     89.61035939	    -12.25890439	     30.88555882	     31.81787585	     28.00796335	      0.00000000	      0.00000000	     89.76206424	      4.42205928	     24.82166364	     31.62801313	     25.22503829	      0.00000000	      0.00000000
      2.55500000	    -13.53172010	      3.14432403	     -0.93922965	      0.11984438	      1.15623436	     -0.20793054	      0.00000000	      0.50000000	      0.00000000	      0.25000000	     63.69402209	    -10.35681082	     -1.09505981	     86.90012116	      1.51669323	    -10.40909353	     -8.19186806	      0.00000000	      0.00000000	     72.23606843	     -6.61446137	     -2.18263400	     71.62267642	      1.25005152	     17.62194996	     -0.65116117	      0.00000000	      0.00000000	    -56.48786144	     -5.49118381	      3.12147132	     89.60810460	    -12.43575862	     30.43993279	     31.89640052	     27.96610820	      0.00000000	      0.00000000	     89.75989682	      4.82725703	     24.61916663	     31.43504055	     25.03041353	      0.00000000	      0.00000000
      2.56000000	    -13.57875639	      2.92664983	     -1.10872410	      0.12032098	      1.15613361	     -0.20845351	      0.00000000	      0.50000000	      0.00000000	      0.25000000	     64.25345154	    -10.21395276	     -1.10324543	     87.94343329	      1.53490247	     -9.93198187	     -8.00250953	      0.00000000	      0.00000000	     71.54264064	     -6.67792514	     -2.05822348	     70.44563007	      1.22950819	     16.99695500	     -0.95161989	      0.00000000	      0.00000000	    -56.40771788	     -5.44101712	      3.49017944	     89.61236427	    -13.30814344	     32.63984227	     32.03756990	     29.41146046	      0.00000000	      0.00000000	     89.76068633	      4.52327452	     26.11092888	     31.31758014	     25.29303865	      0.00000000	      0.00000000
      2.56500000	    -13.59004014	      2.70393821	     -1.24080849	      0.12076678	      1.15590343	     -0.20912073	      0.00000000	      0.50000000	      0.00000000	      0.25000000	     64.84377280	    -10.16733768	     -1.16340659	     89.01076084	      1.55353085	     -9.66494494	     -7.90688208	      0.00000000	      0.00000000	     70.84211626	     -6.65989416	     -1.87878793	     69.33691339	      1.21015743	     16.53394059	     -1.30417493	      0.00000000	      0.00000000	    -56.37259880	     -5.37464205	      3.63182289	     89.61478023	    -12.70106511	     30.81148020	     31.35533498	     30.81008884	      0.00000000	      0.00000000	     89.75448921	      4.78937432	     24.69938594	     30.87492883	     27.52477342	      0.00000000	      0.00000000
      2.57000000	    -13.58945860	      2.55803024	     -1.36709367	      0.12122242	      1.15581393	     -0.20989151	      0.00000000	      0.50000000	      0.00000000	      0.25000000	     65.43379912	    -10.19879037	     -1.17325444	     90.06057979	      1.57185364	     -9.34707582	     -7.74771804	      0.00000000	      0.00000000	     70.04858519	     -6.56765798	     -1.75378559	     68.14570476	      1.18936692	     15.97841867	     -1.61417259	      0.00000000	      0.00000000	    -56.37081090	     -5.33485207	      3.95297177	     89.60724187	    -12.93169577	     31.07892255	     31.53958510	     30.60048097	      0.00000000	      0.00000000	     89.75112817	      4.93362316	     24.99818431	     30.90031270	     27.12381401	      0.00000000	      0.00000000
